<svg version="1" xmlns="http://www.w3.org/2000/svg" width="933.333" height="933.333" viewBox="0 0 700 700"><path d="M336.9 6.4c-.2.2-3.8.6-7.9 1-63.6 5.3-124.6 27.8-176.4 65.1-23.9 17.2-50 42-68.2 64.7-9.1 11.3-27.4 37.5-29.5 42.3-.5 1.1-2.3 4.2-3.9 7-4 6.6-16.2 31.7-18.5 38-1 2.7-2.2 5.4-2.5 6-1.8 2.4-12.8 38.1-14.5 46.5-.2.8-.8 3.5-1.5 6s-1.4 5.8-1.7 7.5c-.2 1.6-.8 5.5-1.3 8.5-1.9 10.8-2.6 16.4-3.6 27.3-.3 4-.8 8.8-1 10.7-.5 4.8-.4 38.1.1 45.5 1.1 14.8 2.2 23.7 4.6 37.5 6 34.3 16.8 67.1 32.5 98.3 3 6 6.6 12.6 7.9 14.7 1.4 2.2 2.5 4.2 2.5 4.6 0 .4 4.7 7.7 10.4 16.3 15.1 22.7 28.7 39.2 47.3 57.3 10.8 10.6 9.7 9.5 18.3 16.8 3.6 3 6.7 5.7 7 6 1.8 1.9 15.2 11.8 24 17.7 14 9.4 25.4 16.1 40.8 23.8 11.8 5.9 39.1 17.5 41.3 17.5.6 0-.1-1.9-1.5-4.3-6.2-10.5-16.6-37.9-22.4-58.7-8.8-31.7-13.6-73-10.8-94.8 3.3-26.9 10.9-51.4 26.7-86.2 8.6-19 15.9-40.5 18.3-54 .2-1.4 1.3-7.5 2.5-13.5 1.1-6.1 2.2-13 2.5-15.5.3-2.5.8-7 1.1-10 .3-3 .7-7.1 1-9 1.3-11 1.7-43.4.5-53-1.9-17-2-18-2.1-29.7 0-18.1 2.2-22.8 9.1-19.3 6.9 3.6 21 20.4 28.2 33.8 1.7 3.1 3.2 5.8 3.3 6 .1.1 1.5-.2 3.1-.8 11.9-4.6 34.4-5.5 48.9-2.1 4.8 1.2 9 2.1 9.5 2.1s2.3-3 4-6.6c5-10.6 16-27.5 21.7-33.2 5.2-5.3 8.1-6.3 10.2-3.8 2.1 2.5 3.7 14.9 3.5 26.1-.7 33.5-1.5 27.7 8 61.5 4.7 16.8 8.9 31.2 9.3 32 .4.9 1.1-.4 1.8-3.5 3.7-14.8 9.3-30.9 15.9-46.3 4.1-9.6 12.8-26.7 15.9-31.5 1.2-1.8 3.3-5.2 4.6-7.7 1.4-2.5 2.7-4.7 3.1-5 .4-.3 2.6-3.4 5-7s7.7-10.8 11.8-16c38.5-48.5 91.9-84.5 151.4-102.1l7.6-2.3-6-7.3c-11.9-14.6-34.8-36.7-52.5-50.6-8.4-6.7-29.7-21.2-36.8-25.2-15.9-8.9-20-11.1-29.5-15.6-10.8-5.2-30.6-13.1-42-16.8-7.3-2.4-30.9-8.7-35.5-9.6-1.6-.2-4.1-.7-5.5-1-4.2-.8-13.3-2.3-17.7-2.9-2.4-.3-6-.8-8-1.1-2.1-.3-5.8-.8-8.3-1.1-5.1-.6-55.5-1.5-56.1-1z"/><path d="M286.3 336.1c-11.4 7.3-4.8 25.5 8.5 23.4 9.3-1.5 14-11.3 9.2-19.2-3.7-6.2-11.7-8.1-17.7-4.2zm79.5-.4c-1.4.9-3.5 3.3-4.6 5.2-4.5 8.4.5 17.3 10.4 18.6 6.4.9 12.6-4 13.8-11 .7-4-2.5-10.6-6.3-12.8-3.7-2.1-9.8-2.2-13.3 0zm-44.2 60.4c-6.9 1.2-6.8 5.2.5 10.8 4.9 3.8 5.5 4.7 6.4 11.8.8 6.9 1.9 10.6 3.2 11 1.7.6 3.3-5.4 3.3-12.3 0-5.8.2-6.5 2.8-8.1 1.5-.9 4.2-3.2 6-5 6.1-6.1 3.8-8.4-9-8.7-5.1-.1-11 .1-13.2.5z"/></svg>