<?xml version="1.0" standalone="no"?>
<!DOCTYPE svg PUBLIC "-//W3C//DTD SVG 20010904//EN"
 "http://www.w3.org/TR/2001/REC-SVG-20010904/DTD/svg10.dtd">
<svg version="1.0" xmlns="http://www.w3.org/2000/svg"
 width="700.000000pt" height="700.000000pt" viewBox="0 0 700.000000 700.000000"
 preserveAspectRatio="xMidYMid meet">
<metadata>
Created by potrace 1.11, written by Peter Selinger 2001-2013
</metadata>
<g transform="translate(0.000000,700.000000) scale(0.100000,-0.100000)"
fill="#000000" stroke="none">
<path d="M3369 6936 c-2 -2 -38 -6 -79 -10 -636 -53 -1246 -278 -1764 -651
-239 -172 -500 -420 -682 -647 -91 -113 -274 -375 -295 -423 -5 -11 -23 -42
-39 -70 -40 -66 -162 -317 -185 -380 -10 -27 -22 -54 -25 -60 -18 -24 -128
-381 -145 -465 -2 -8 -8 -35 -15 -60 -7 -25 -14 -58 -17 -75 -2 -16 -8 -55
-13 -85 -19 -108 -26 -164 -36 -273 -3 -40 -8 -88 -10 -107 -5 -48 -4 -381 1
-455 11 -148 22 -237 46 -375 60 -343 168 -671 325 -983 30 -60 66 -126 79
-147 14 -22 25 -42 25 -46 0 -4 47 -77 104 -163 151 -227 287 -392 473 -573
108 -106 97 -95 183 -168 36 -30 67 -57 70 -60 18 -19 152 -118 240 -177 140
-94 254 -161 408 -238 118 -59 391 -175 413 -175 6 0 -1 19 -15 43 -62 105
-166 379 -224 587 -88 317 -136 730 -108 948 33 269 109 514 267 862 86 190
159 405 183 540 2 14 13 75 25 135 11 61 22 130 25 155 3 25 8 70 11 100 3 30
7 71 10 90 13 110 17 434 5 530 -19 170 -20 180 -21 297 0 181 22 228 91 193
69 -36 210 -204 282 -338 17 -31 32 -58 33 -60 1 -1 15 2 31 8 119 46 344 55
489 21 48 -12 90 -21 95 -21 5 0 23 30 40 66 50 106 160 275 217 332 52 53 81
63 102 38 21 -25 37 -149 35 -261 -7 -335 -15 -277 80 -615 47 -168 89 -312
93 -320 4 -9 11 4 18 35 37 148 93 309 159 463 41 96 128 267 159 315 12 18
33 52 46 77 14 25 27 47 31 50 4 3 26 34 50 70 24 36 77 108 118 160 385 485
919 845 1514 1021 l76 23 -60 73 c-119 146 -348 367 -525 506 -84 67 -297 212
-368 252 -159 89 -200 111 -295 156 -108 52 -306 131 -420 168 -73 24 -309 87
-355 96 -16 2 -41 7 -55 10 -42 8 -133 23 -177 29 -24 3 -60 8 -80 11 -21 3
-58 8 -83 11 -51 6 -555 15 -561 10z"/>
<path d="M2863 3639 c-114 -73 -48 -255 85 -234 93 15 140 113 92 192 -37 62
-117 81 -177 42z"/>
<path d="M3658 3643 c-14 -9 -35 -33 -46 -52 -45 -84 5 -173 104 -186 64 -9
126 40 138 110 7 40 -25 106 -63 128 -37 21 -98 22 -133 0z"/>
<path d="M3216 3039 c-69 -12 -68 -52 5 -108 49 -38 55 -47 64 -118 8 -69 19
-106 32 -110 17 -6 33 54 33 123 0 58 2 65 28 81 15 9 42 32 60 50 61 61 38
84 -90 87 -51 1 -110 -1 -132 -5z"/>
</g>
</svg>
